<svg width="1200" height="800" viewBox="0 0 1200 800" fill="none" xmlns="http://www.w3.org/2000/svg">
  <defs>
    <linearGradient id="g" x1="0" y1="0" x2="1200" y2="800" gradientUnits="userSpaceOnUse">
      <stop stop-color="#EC4899"/>
      <stop offset="1" stop-color="#8B5CF6"/>
    </linearGradient>
  </defs>
  <rect width="1200" height="800" rx="56" fill="url(#g)"/>
  <g opacity="0.92">
    <rect x="430" y="170" width="340" height="520" rx="56" fill="white"/>
    <rect x="470" y="220" width="260" height="420" rx="36" fill="#0F172A" opacity="0.06"/>
    <g opacity="0.24" fill="#0F172A">
      <circle cx="500" cy="270" r="4"/>
      <circle cx="560" cy="270" r="4"/>
      <circle cx="620" cy="270" r="4"/>
      <circle cx="680" cy="270" r="4"/>
      <circle cx="500" cy="330" r="4"/>
      <circle cx="560" cy="330" r="4"/>
      <circle cx="620" cy="330" r="4"/>
      <circle cx="680" cy="330" r="4"/>
      <circle cx="500" cy="390" r="4"/>
      <circle cx="560" cy="390" r="4"/>
      <circle cx="620" cy="390" r="4"/>
      <circle cx="680" cy="390" r="4"/>
      <circle cx="500" cy="450" r="4"/>
      <circle cx="560" cy="450" r="4"/>
      <circle cx="620" cy="450" r="4"/>
      <circle cx="680" cy="450" r="4"/>
    </g>
  </g>
  <text x="72" y="736" font-family="Arial, Helvetica, sans-serif" font-size="44" fill="white" opacity="0.92">Dot Notebook</text>
</svg>

